# xmcd
#
# Track frame offsets:
#	150
#	18239
#	38003
#	57189
#	76396
#	97198
#	114197
#	134360
#	150826
#	171757
#	188484
#	208645
#	229175
#	248800
#	265974
#	279937
#	298890
#
# Disc length: 4202 seconds
#
# Revision: 0
# Processed by: cddbd v1.4PL0 Copyright (c) Steve Scherf et al.
# Submitted via: EasyCDDAExtractor 4.6.9.1
#
DISCID=df106811
DTITLE=Laura Pausini - Lo Mejor De Laura Pausini Volvere Junto A Ti
DYEAR=2001
DGENRE=Pop
TTITLE0=Volvere junto a ti
TTITLE1=La soledad
TTITLE2=Se fuè
TTITLE3=Amores extraños
TTITLE4=Gente (ordinary people)
TTITLE5=Inolvidable
TTITLE6=Las cosas que vives
TTITLE7=Cuando se ama (sei que me amavas) duo con Gilberto Gil
TTITLE8=Escucha a tu corazon
TTITLE9=La mia risposta
TTITLE10=En ausencia de ti
TTITLE11=Emergencia de amor
TTITLE12=One more time
TTITLE13=Entre tù y mil mares
TTITLE14=Un error de los grandes
TTITLE15=Dos historias iguales
TTITLE16=Dime (duo con José el Francés)
EXTD=ID3G:  12
EXTT0=
EXTT1=
EXTT2=
EXTT3=
EXTT4=
EXTT5=
EXTT6=
EXTT7=
EXTT8=
EXTT9=
EXTT10=
EXTT11=
EXTT12=
EXTT13=
EXTT14=
EXTT15=
EXTT16=
PLAYORDER=
